<svg width="117" height="119" viewBox="0 0 117 119" fill="none" xmlns="http://www.w3.org/2000/svg">
<path d="M87.2564 103.371C83.0541 116.541 74.8558 121.18 62.6616 117.289C58.3529 115.914 55.287 113.592 53.4637 110.323C51.6664 106.973 51.4033 103.306 52.6744 99.3228C53.9714 95.2581 56.6461 92.3495 60.6986 90.5972C64.777 88.7635 69.0925 88.573 73.645 90.0256C76.8729 91.0556 78.4869 91.5706 78.8107 91.6359C82.4975 92.3788 83.9476 91.6303 85.4773 88.1946C85.6117 87.8928 85.8986 86.9936 86.4724 85.1952L92.7884 65.4013C94.1462 61.146 94.8251 59.0183 94.3825 57.3319C93.9949 55.8556 93.0593 54.5825 91.7661 53.7717C90.2889 52.8457 88.0558 52.8582 83.5896 52.8832C80.3315 52.9015 76.9607 52.9204 74.1054 52.9364C69.3239 52.9632 63.0965 52.9981 58.3738 53.0245C55.8699 53.0386 54.6179 53.0456 53.5563 53.4727C52.619 53.8498 51.792 54.4575 51.1522 55.2395C50.4276 56.1251 50.0467 57.3187 49.2849 59.7061L35.5291 102.816C31.2489 116.23 22.9305 120.965 10.5736 117.022C6.26498 115.648 3.23969 113.339 1.49775 110.096C-0.244198 106.853 -0.466669 103.199 0.830337 99.134C2.12734 95.0692 4.63949 92.1088 8.36678 90.2527C12.2013 88.3412 16.4355 88.1248 21.0693 89.6034C25.0456 90.8721 27.0337 91.5065 27.7392 91.5589C30.6564 91.7756 31.8664 91.1426 33.3521 88.6228C33.7115 88.0134 34.1023 86.741 34.8839 84.1962L58.608 6.95714C59.3525 4.53334 59.7247 3.32144 60.4499 2.42188C61.0902 1.62769 61.9224 1.00986 62.8679 0.626779C63.9388 0.192875 65.2056 0.18723 67.7392 0.17594C73.962 0.148209 83.075 0.107599 89.8995 0.0771863C94.7492 0.0555745 100.755 0.0288129 106.057 0.00518311C110.476 -0.0145095 112.686 -0.0243558 114.156 0.892686C115.443 1.69567 116.378 2.95643 116.773 4.42119C117.224 6.094 116.573 8.20649 115.272 12.4315L87.2564 103.371Z" fill="white" style="fill:white;fill-opacity:1;"/>
</svg>
