<svg width="117" height="119" viewBox="0 0 117 119" fill="none" xmlns="http://www.w3.org/2000/svg">
<path opacity="0.3" d="M29.6593 103.371C33.8616 116.541 42.0599 121.18 54.2541 117.289C58.5628 115.914 61.6287 113.592 63.4519 110.323C65.2492 106.973 65.5124 103.306 64.2413 99.3228C62.9443 95.2581 60.2695 92.3495 56.2171 90.5972C52.1387 88.7635 47.8232 88.573 43.2707 90.0256C40.0428 91.0556 38.4288 91.5706 38.1049 91.6359C34.4181 92.3788 32.9681 91.6303 31.4384 88.1946C31.304 87.8928 31.0171 86.9936 30.4433 85.1952L24.1273 65.4013C22.7695 61.146 22.0906 59.0183 22.5332 57.3319C22.9208 55.8556 23.8564 54.5825 25.1496 53.7717C26.6268 52.8457 28.8599 52.8582 33.3261 52.8832C36.5842 52.9015 39.955 52.9204 42.8103 52.9364C47.5918 52.9632 53.8192 52.9981 58.5419 53.0245C61.0458 53.0386 62.2978 53.0456 63.3593 53.4727C64.2967 53.8498 65.1237 54.4575 65.7635 55.2395C66.4881 56.1251 66.869 57.3187 67.6308 59.7061L81.3866 102.816C85.6667 116.23 93.9852 120.965 106.342 117.022C110.651 115.648 113.676 113.339 115.418 110.096C117.16 106.853 117.382 103.199 116.085 99.134C114.788 95.0692 112.276 92.1088 108.549 90.2527C104.714 88.3412 100.48 88.1248 95.8464 89.6034C91.8701 90.8721 89.882 91.5065 89.1765 91.5589C86.2593 91.7756 85.0492 91.1426 83.5635 88.6228C83.2042 88.0134 82.8134 86.741 82.0318 84.1962L58.3077 6.95714C57.5632 4.53334 57.1909 3.32144 56.4657 2.42188C55.8255 1.62769 54.9933 1.00986 54.0478 0.626779C52.9769 0.192875 51.7101 0.18723 49.1765 0.17594C42.9537 0.148209 33.8407 0.107599 27.0162 0.0771863C22.1665 0.0555745 16.1611 0.0288129 10.8585 0.00518311C6.43943 -0.0145095 4.2299 -0.0243558 2.75993 0.892686C1.47278 1.69567 0.537602 2.95643 0.142627 4.42119C-0.30845 6.094 0.342335 8.20649 1.64391 12.4315L29.6593 103.371Z" fill="white" style="fill:white;fill-opacity:1;"/>
</svg>
