<svg width="186" height="164" viewBox="0 0 186 164" fill="none" xmlns="http://www.w3.org/2000/svg">
<path opacity="0.3" d="M94.8958 128.514C99.0981 141.684 107.296 146.324 119.491 142.432C123.799 141.058 126.865 138.736 128.688 135.467C130.486 132.117 130.749 128.45 129.478 124.466C128.181 120.402 125.506 117.493 121.454 115.741C117.375 113.907 113.06 113.716 108.507 115.169C105.279 116.199 103.665 116.714 103.341 116.779C99.6547 117.522 98.2046 116.774 96.6749 113.338C96.5405 113.036 96.2536 112.137 95.6798 110.339L89.3638 90.5448C88.006 86.2894 87.3271 84.1618 87.7697 82.4754C88.1573 80.9991 89.0929 79.726 90.3861 78.9152C91.8633 77.9891 94.0964 78.0017 98.5626 78.0267C101.821 78.045 105.192 78.0638 108.047 78.0798C112.828 78.1066 119.056 78.1416 123.778 78.168C126.282 78.1821 127.534 78.1891 128.596 78.6162C129.533 78.9933 130.36 79.601 131 80.383C131.725 81.2685 132.106 82.4622 132.867 84.8496L146.623 127.96C150.903 141.373 159.222 146.109 171.579 142.166C175.887 140.791 178.913 138.482 180.654 135.239C182.396 131.996 182.619 128.342 181.322 124.277C180.025 120.213 177.513 117.252 173.785 115.396C169.951 113.485 165.717 113.268 161.083 114.747C157.107 116.016 155.119 116.65 154.413 116.702C151.496 116.919 150.286 116.286 148.8 113.766C148.441 113.157 148.05 111.884 147.268 109.34L123.544 32.1006C122.8 29.6768 122.427 28.4649 121.702 27.5654C121.062 26.7712 120.23 26.1533 119.284 25.7703C118.213 25.3364 116.947 25.3307 114.413 25.3194C108.19 25.2917 99.0772 25.2511 92.2527 25.2207C87.403 25.1991 81.3976 25.1723 76.095 25.1487C71.6759 25.129 69.4664 25.1191 67.9964 26.0362C66.7093 26.8391 65.7741 28.0999 65.3791 29.5647C64.9281 31.2375 65.5788 33.35 66.8804 37.5749L94.8958 128.514Z" fill="black" style="fill:black;fill-opacity:1;"/>
<path d="M90.7062 128.514C86.5039 141.684 78.3056 146.324 66.1113 142.432C61.8027 141.058 58.7367 138.736 56.9135 135.467C55.1162 132.117 54.8531 128.45 56.1242 124.466C57.4212 120.402 60.0959 117.493 64.1484 115.741C68.2268 113.907 72.5423 113.716 77.0948 115.169C80.3227 116.199 81.9366 116.714 82.2605 116.779C85.9473 117.522 87.3973 116.774 88.9271 113.338C89.0614 113.036 89.3484 112.137 89.9222 110.339L96.2382 90.5448C97.596 86.2894 98.2749 84.1618 97.8322 82.4754C97.4447 80.9991 96.5091 79.726 95.2158 78.9152C93.7387 77.9891 91.5056 78.0017 87.0394 78.0267C83.7812 78.045 80.4104 78.0638 77.5552 78.0798C72.7737 78.1066 66.5462 78.1416 61.8236 78.168C59.3196 78.1821 58.0677 78.1891 57.0061 78.6162C56.0687 78.9933 55.2418 79.601 54.602 80.383C53.8773 81.2685 53.4964 82.4622 52.7347 84.8496L38.9788 127.96C34.6987 141.373 26.3802 146.109 14.0234 142.166C9.71475 140.791 6.68946 138.482 4.94751 135.239C3.20557 131.996 2.9831 128.342 4.28011 124.277C5.57711 120.213 8.08925 117.252 11.8165 115.396C15.6511 113.485 19.8852 113.268 24.5191 114.747C28.4953 116.016 30.4835 116.65 31.189 116.702C34.1061 116.919 35.3162 116.286 36.8019 113.766C37.1612 113.157 37.552 111.884 38.3337 109.34L62.0578 32.1006C62.8023 29.6768 63.1745 28.4649 63.8997 27.5654C64.54 26.7712 65.3722 26.1533 66.3177 25.7703C67.3886 25.3364 68.6554 25.3307 71.189 25.3194C77.4118 25.2917 86.5247 25.2511 93.3493 25.2207C98.199 25.1991 104.204 25.1723 109.507 25.1487C113.926 25.129 116.136 25.1191 117.606 26.0362C118.893 26.8391 119.828 28.0999 120.223 29.5647C120.674 31.2375 120.023 33.35 118.722 37.5749L90.7062 128.514Z" fill="black" style="fill:black;fill-opacity:1;"/>
</svg>
